<?xml version="1.0" encoding="utf-8"?>
<!-- Generator: Adobe Illustrator 16.0.0, SVG Export Plug-In . SVG Version: 6.00 Build 0)  -->
<!DOCTYPE svg PUBLIC "-//W3C//DTD SVG 1.1//EN" "http://www.w3.org/Graphics/SVG/1.1/DTD/svg11.dtd">
<svg version="1.1" id="Ebene_1" xmlns="http://www.w3.org/2000/svg" xmlns:xlink="http://www.w3.org/1999/xlink" x="0px" y="0px"
	 width="1262.488px" height="61.248px" viewBox="0 0 1262.488 61.248" enable-background="new 0 0 1262.488 61.248"
	 xml:space="preserve">
<g>
	<path fill="#EB5E5E" d="M0,4.927c26.302,0,26.302,31.975,52.604,31.975c26.301,0,26.301-31.975,52.601-31.975
		c26.301,0,26.301,31.975,52.603,31.975c26.301,0,26.301-31.975,52.602-31.975s26.301,31.975,52.602,31.975
		s26.301-31.975,52.603-31.975s26.302,31.975,52.603,31.975c26.299,0,26.299-31.975,52.599-31.975
		c26.302,0,26.302,31.975,52.604,31.975c26.299,0,26.299-31.975,52.599-31.975c26.302,0,26.302,31.975,52.603,31.975
		c26.3,0,26.3-31.975,52.6-31.975c26.301,0,26.301,31.975,52.602,31.975s26.301-31.975,52.602-31.975
		c26.303,0,26.303,31.975,52.604,31.975c26.304,0,26.304-31.975,52.606-31.975c26.302,0,26.302,31.975,52.604,31.975
		c26.303,0,26.303-31.975,52.606-31.975c26.302,0,26.302,31.975,52.604,31.975s26.302-31.975,52.604-31.975
		s26.303,31.975,52.606,31.975c26.302,0,26.302-31.975,52.604-31.975c26.307,0,26.307,31.975,52.612,31.975
		s26.306-31.975,52.612-31.975"/>
	<path fill="none" stroke="#EB5F5E" stroke-width="3" stroke-miterlimit="10" d="M0,4.927c26.302,0,26.302,31.975,52.604,31.975
		c26.301,0,26.301-31.975,52.601-31.975c26.301,0,26.301,31.975,52.603,31.975c26.301,0,26.301-31.975,52.602-31.975
		s26.301,31.975,52.602,31.975s26.301-31.975,52.603-31.975s26.302,31.975,52.603,31.975c26.299,0,26.299-31.975,52.599-31.975
		c26.302,0,26.302,31.975,52.604,31.975c26.299,0,26.299-31.975,52.599-31.975c26.302,0,26.302,31.975,52.603,31.975
		c26.3,0,26.3-31.975,52.6-31.975c26.301,0,26.301,31.975,52.602,31.975s26.301-31.975,52.602-31.975
		c26.303,0,26.303,31.975,52.604,31.975c26.304,0,26.304-31.975,52.606-31.975c26.302,0,26.302,31.975,52.604,31.975
		c26.303,0,26.303-31.975,52.606-31.975c26.302,0,26.302,31.975,52.604,31.975s26.302-31.975,52.604-31.975
		s26.303,31.975,52.606,31.975c26.302,0,26.302-31.975,52.604-31.975c26.307,0,26.307,31.975,52.612,31.975
		s26.306-31.975,52.612-31.975"/>
</g>
<rect y="-4" fill="#EB5E5E" stroke="#EB5F5E" stroke-width="5" stroke-miterlimit="10" width="1262.488" height="6.915"/>
</svg>
